<?xml version="1.0" standalone="no"?>
<!DOCTYPE svg PUBLIC "-//W3C//DTD SVG 20010904//EN"
 "http://www.w3.org/TR/2001/REC-SVG-20010904/DTD/svg10.dtd">
<svg version="1.0" xmlns="http://www.w3.org/2000/svg"
 width="356.000000pt" height="356.000000pt" viewBox="0 0 356.000000 356.000000"
 preserveAspectRatio="xMidYMid meet">
<metadata>
Created by potrace 1.14, written by Peter Selinger 2001-2017
</metadata>
<g transform="translate(0.000000,356.000000) scale(0.100000,-0.100000)"
fill="#000000" stroke="none">
<path d="M1954 3546 c-10 -8 -16 -18 -11 -22 4 -4 7 -2 7 5 0 7 4 10 9 7 5 -3
14 1 21 9 16 19 0 19 -26 1z"/>
<path d="M2752 3453 c-6 -2 -10 -8 -7 -13 3 -5 -5 -11 -17 -15 -26 -7 -30 -9
-143 -60 -44 -20 -107 -47 -140 -59 -33 -13 -82 -34 -110 -46 -46 -21 -118
-52 -413 -176 -56 -24 -117 -50 -135 -58 -17 -9 -79 -35 -137 -59 -238 -100
-450 -190 -522 -222 -43 -19 -80 -35 -82 -35 -3 0 -36 -14 -73 -31 -38 -17
-78 -35 -91 -40 l-22 -9 -2 -625 c-2 -344 -3 -680 -3 -747 l0 -123 110 -55
c61 -30 187 -92 281 -137 l171 -81 12 -74 c7 -40 17 -102 22 -138 6 -36 15
-89 20 -119 5 -29 7 -57 4 -61 -6 -9 -171 -23 -301 -25 -55 -1 -106 -5 -112
-9 -7 -4 -12 -2 -12 6 0 9 -3 9 -8 2 -4 -6 -17 -10 -30 -9 -12 1 -22 -1 -22
-5 0 -3 -12 -7 -27 -7 -114 -5 -198 -19 -201 -34 -2 -10 84 -75 267 -202 149
-103 276 -187 283 -187 13 0 287 58 373 79 200 49 329 73 345 64 14 -9 16 -7
12 21 -2 17 -19 81 -37 141 -85 280 -91 305 -76 305 12 0 60 -22 391 -180 337
-161 358 -170 384 -170 13 0 28 6 33 13 6 6 15 70 22 142 6 72 16 177 21 235
58 639 72 1167 45 1750 -9 179 -15 352 -14 385 2 213 2 254 -6 271 -4 10 -9
37 -11 59 -1 22 -5 58 -8 80 -14 96 -20 154 -20 207 -1 32 -1 58 -1 57 0 0 -6
-3 -13 -6z"/>
</g>
</svg>
